<?xml version="1.0"?>
<svg xmlns="http://www.w3.org/2000/svg" height="512px" viewBox="0 0 512.00085 512" width="512px"><g><path d="m486.390625 197.195312-71.078125 71.085938c-33.09375-19.507812-63.011719-1.265625-73.519531 9.238281l-96.398438 96.410157c-5.859375 5.855468-5.859375 15.351562 0 21.210937l21.527344 21.527344-26.988281 26.984375-21.527344-21.527344c-5.855469-5.855469-15.355469-5.855469-21.210938 0-5.859374 5.859375-5.859374 15.355469 0 21.214844l64.265626 64.265625c2.929687 2.929687 6.769531 4.394531 10.605468 4.394531 3.839844 0 7.679688-1.464844 10.605469-4.394531 5.859375-5.855469 5.859375-15.355469 0-21.210938l-21.527344-21.527343 26.988281-26.988282 21.527344 21.527344c2.8125 2.8125 6.628906 4.394531 10.605469 4.394531 3.980469 0 7.796875-1.582031 10.609375-4.394531 0 0 58.320312-58.328125 96.398438-96.40625 10.914062-10.914062 28.539062-40.84375 9.253906-73.503906l71.082031-71.089844c5.855469-5.859375 5.855469-15.355469-.003906-21.214844-5.859375-5.855468-15.355469-5.855468-21.214844.003906zm-80.332031 144.589844c-28.09375 28.097656-67.214844 67.21875-85.792969 85.800782l-43.050781-43.050782 85.789062-85.800781c11.6875-11.683594 30.746094-11.925781 42.714844-.335937.113281.117187.226562.234374.339844.351562 11.90625 11.902344 11.90625 31.136719 0 43.035156zm0 0" data-original="#000000" class="active-path" data-old_color="#000000" fill="#EA2E5A"/><path d="m292.375 246.90625c72.636719 0 141.007812-35.425781 182.890625-94.765625l33.988281-48.152344c2.378906-3.367187 3.265625-7.566406 2.453125-11.609375-.816406-4.042968-3.257812-7.574218-6.757812-9.761718l-108.132813-67.582032c-40.488281-25.304687-83.5-13.328125-104.847656-2.648437l-35.96875 17.980469-35.964844-17.980469c-21.300781-10.652344-64.347656-22.664063-104.851562 2.648437l-108.132813 67.582032c-3.5 2.1875-5.941406 5.714843-6.753906 9.761718-.816406 4.042969.070313 8.242188 2.449219 11.609375l33.988281 48.152344c41.882813 59.339844 110.253906 94.765625 182.890625 94.765625zm-161.292969-206.429688c28.910157-18.070312 60.300781-8.875 75.53125-1.257812l42.679688 21.339844c4.222656 2.109375 9.191406 2.109375 13.414062 0l42.679688-21.339844c15.183593-7.59375 46.589843-16.828125 75.53125 1.257812l69.449219 43.40625-128.871094 9.910157c-22.777344 1.757812-44.761719 7.46875-65.492188 17.019531-20.699218-9.539062-42.703125-15.261719-65.503906-17.023438l-128.867188-9.910156zm-69.835937 94.367188-15.601563-22.101562 142.550781 10.960937c20.957032 1.617187 41.121094 7.203125 59.867188 16.570313 1.757812.890624 4.144531 2.199218 7.9375 2.199218 3.738281 0 6.140625-1.289062 7.875-2.167968 18.808594-9.398438 38.972656-14.984376 59.925781-16.601563l142.558594-10.960937-15.601563 22.097656c-36.273437 51.386718-95.480468 82.066406-158.382812 82.066406h-72.75c-62.902344 0-122.109375-30.679688-158.378906-82.0625zm0 0" data-original="#000000" class="active-path" data-old_color="#000000" fill="#EA2E5A"/></g> </svg>
