<?xml version="1.0"?>
<svg xmlns="http://www.w3.org/2000/svg" xmlns:xlink="http://www.w3.org/1999/xlink" version="1.1" id="Layer_1" x="0px" y="0px" viewBox="0 0 512 512" style="enable-background:new 0 0 512 512;" xml:space="preserve" width="512px" height="512px"><g><g>
	<path d="M402.347,11c-33.084,0-60,26.916-60,60s26.916,60,60,60s60-26.916,60-60S435.431,11,402.347,11z M402.347,101   c-16.542,0-30-13.458-30-30s13.458-30,30-30s30,13.458,30,30S418.889,101,402.347,101z" data-original="#000000" class="active-path" data-old_color="#000000" fill="#EA2E5A"/>
	<path d="M252.347,86c-87.848,0-135,63.474-135,150.531c0,114.97,12.553,191.374,38.375,233.577   C181.354,512,215.572,512,232.017,512c18.456,0,43.168-8.495,56.091-48.965c6.217-19.469,9.239-44.448,9.239-76.365   c0-42.492,16.713-68.369,34.407-95.764c17.104-26.483,34.791-53.868,34.791-94.628C366.545,109.226,294.762,86,252.347,86z    M306.553,274.629c-18.377,28.453-39.206,60.703-39.206,112.041c0,28.372-2.63,50.995-7.817,67.239   C250.56,482,237.088,482,232.017,482c-18.52,0-35.117-2.073-50.705-27.549c-22.537-36.834-33.965-110.153-33.965-217.919   c0-36.24,10.231-120.531,105-120.531c14.061,0,84.198,3.87,84.198,80.277C336.545,228.192,322.646,249.711,306.553,274.629z" data-original="#000000" class="active-path" data-old_color="#000000" fill="#EA2E5A"/>
	<path d="M289.334,60.111c16.542,0,30-13.458,30-30s-13.458-30-30-30s-30,13.458-30,30S272.792,60.111,289.334,60.111z" data-original="#000000" class="active-path" data-old_color="#000000" fill="#EA2E5A"/>
	<path d="M211.302,60c16.542,0,30-13.458,30-30s-13.458-30-30-30s-30,13.458-30,30S194.76,60,211.302,60z" data-original="#000000" class="active-path" data-old_color="#000000" fill="#EA2E5A"/>
	<path d="M165.664,61.229c0-16.542-13.458-30-30-30s-30,13.458-30,30s13.458,30,30,30S165.664,77.771,165.664,61.229z" data-original="#000000" class="active-path" data-old_color="#000000" fill="#EA2E5A"/>
	<path d="M79.653,95.856c-16.542,0-30,13.458-30,30s13.458,30,30,30s30-13.458,30-30S96.195,95.856,79.653,95.856z" data-original="#000000" class="active-path" data-old_color="#000000" fill="#EA2E5A"/>
</g></g> </svg>
